<svg width="65" height="61" viewBox="0 0 65 61" fill="none" xmlns="http://www.w3.org/2000/svg">
<path d="M59.9166 0.757793C59.0389 0.796514 58.2212 1.05215 57.5013 1.34314C56.827 1.6144 54.2505 2.71944 50.1924 4.45975C46.1306 6.20157 40.7525 8.51058 35.0154 10.9777C23.5413 15.912 10.6413 21.4662 4.03396 24.309C3.7855 24.4158 2.91856 24.6928 1.99841 25.4111C1.07826 26.1295 0.0999756 27.618 0.0999756 29.2765C0.0999756 30.614 0.737358 31.9426 1.53962 32.7359C2.34189 33.5292 3.19079 33.9211 3.91794 34.2178C6.55629 35.2943 14.739 38.6428 16.2842 39.275C16.8279 40.9408 19.7897 50.0008 20.4765 52.2213C20.9293 53.6866 21.3603 54.6043 21.9215 55.3326C22.202 55.6968 22.5282 56.0159 22.9234 56.266C23.0814 56.366 23.2546 56.4429 23.4297 56.5139L23.4402 56.5191C23.4805 56.5353 23.5153 56.5628 23.5562 56.5771C23.6334 56.6041 23.685 56.6074 23.7883 56.6299C24.1995 56.7627 24.6148 56.8461 24.9853 56.8461C26.5653 56.8461 27.5324 55.976 27.5324 55.976L27.5904 55.9338L35.7168 48.9043L45.5728 58.2277C45.7116 58.4239 47.0058 60.2 49.8601 60.2C51.5549 60.2 52.8993 59.3496 53.7625 58.4439C54.6256 57.5383 55.1634 56.5869 55.392 55.3906V55.3853C55.6058 54.2549 64.689 7.62381 64.689 7.62381L64.6732 7.68709C64.9391 6.4734 65.0088 5.34311 64.7154 4.22772C64.422 3.11232 63.6489 2.04439 62.6904 1.46971C61.732 0.895157 60.7942 0.719072 59.9166 0.757793ZM59.4103 6.40037C59.3974 6.47917 59.42 6.43955 59.3998 6.53221L59.3945 6.56385L59.3892 6.59549C59.3892 6.59549 50.4185 52.6302 50.0869 54.3834C50.1112 54.251 50.0002 54.5142 49.8865 54.6734C49.7257 54.5626 49.3961 54.4203 49.3961 54.4203L49.3433 54.3623L35.8802 41.6269L26.3617 49.8535L29.1935 38.5156C29.1935 38.5156 46.8952 20.1917 47.9617 19.1252C48.8203 18.272 49.0006 17.9746 49.0006 17.6803C49.0006 17.2861 48.7951 17 48.3361 17C47.923 17 47.3675 17.4016 47.0705 17.5906C43.2011 20.0572 26.2139 29.9577 18.5992 34.3865C17.3891 33.8913 8.98207 30.45 6.13279 29.2871C6.15436 29.2776 6.14726 29.281 6.1697 29.2713C12.7788 26.4278 25.6734 20.8736 37.1459 15.94C42.8821 13.4732 48.2644 11.1625 52.3228 9.42205C56.3188 7.70843 59.0953 6.52908 59.4103 6.40037Z" fill="#C39F00"/>
</svg>
