<svg width="82" height="82" viewBox="0 0 82 82" fill="none" xmlns="http://www.w3.org/2000/svg">
<path d="M34.1667 51.2499L51.8992 40.9999L34.1667 30.7499V51.2499ZM73.6634 24.4974C74.1075 26.1033 74.415 28.2558 74.62 30.9891C74.8592 33.7224 74.9617 36.0799 74.9617 38.1299L75.1667 40.9999C75.1667 48.4824 74.62 53.9832 73.6634 57.5024C72.8092 60.5774 70.8275 62.5591 67.7525 63.4132C66.1467 63.8574 63.2084 64.1649 58.6984 64.3699C54.2567 64.6091 50.1909 64.7116 46.4325 64.7116L41 64.9166C26.6842 64.9166 17.7667 64.3699 14.2475 63.4132C11.1725 62.5591 9.19087 60.5774 8.33671 57.5024C7.89254 55.8966 7.58504 53.7441 7.38004 51.0107C7.14087 48.2774 7.03837 45.9199 7.03837 43.8699L6.83337 40.9999C6.83337 33.5174 7.38004 28.0166 8.33671 24.4974C9.19087 21.4224 11.1725 19.4408 14.2475 18.5866C15.8534 18.1424 18.7917 17.8349 23.3017 17.6299C27.7434 17.3908 31.8092 17.2883 35.5675 17.2883L41 17.0833C55.3159 17.0833 64.2334 17.6299 67.7525 18.5866C70.8275 19.4408 72.8092 21.4224 73.6634 24.4974Z" fill="#C39F00"/>
</svg>
